# xmcd
#
# Track frame offsets: 
#        150
#        17240
#        31663
#        42465
#        54305
#        64915
#        78325
#        91420
#        104420
#        115445
#
# Disc length: 1699 seconds
#
# Revision: 0
# Processed by: cddbd v1.4PL0 Copyright (c) Steve Scherf et al.
# Submitted via: ExactAudioCopy v0.90b3
#
DISCID=7e06a10a
DTITLE=George Jones - Bartender's Blue
DYEAR=1900
DGENRE=Country
TTITLE0=Bartender's Blues (Vocal Accompaniment By James Taylor)
TTITLE1=I'll Just Take It Out In Love
TTITLE2=If You Loved A Liar (You'd Hug My Neck)
TTITLE3=Ain't Your Memory Got No Pride At All
TTITLE4=I Gave It All Up For You
TTITLE5=I Don't Want No Stranger Sleepin' In My Bed
TTITLE6=I Ain't Got No Business Doin' Business Today
TTITLE7=Leaving Love All Over The Place
TTITLE8=(When Your Phone Don't Ring) It'll Be Me
TTITLE9=Julianne
EXTD=
EXTT0=
EXTT1=
EXTT2=
EXTT3=
EXTT4=
EXTT5=
EXTT6=
EXTT7=
EXTT8=
EXTT9=
PLAYORDER=
